<svg width="600" height="400" viewBox="0 0 600 400" fill="none" xmlns="http://www.w3.org/2000/svg">
  <!-- Background -->
  <rect width="600" height="400" fill="#f8f9fa" />
  
  <!-- Decorative Elements -->
  <circle cx="150" cy="150" r="120" fill="#4361ee" opacity="0.05" />
  <rect x="400" y="80" width="150" height="150" rx="20" fill="#ffd60a" opacity="0.1" />
  <path d="M450 280L500 350L400 350L450 280Z" fill="#4361ee" opacity="0.1" />
  
  <!-- Person Silhouette -->
  <circle cx="300" cy="140" r="80" fill="#16213e" />
  <rect x="220" y="220" width="160" height="160" rx="10" fill="#16213e" />
  
  <!-- Face Elements (Minimalist) -->
  <circle cx="270" cy="130" r="10" fill="white" />
  <circle cx="330" cy="130" r="10" fill="white" />
  <path d="M280 170C280 170 300 190 320 170" stroke="white" stroke-width="4" stroke-linecap="round" />
  
  <!-- Creative Elements Around Person -->
  <circle cx="180" cy="100" r="20" fill="#ffd60a" opacity="0.6" />
  <rect x="400" y="120" width="40" height="40" rx="8" fill="#4361ee" opacity="0.6" />
  <path d="M200 250L230 290L170 290L200 250Z" fill="#ff6b6b" opacity="0.6" />
  <path d="M400 230L430 270L370 270L400 230Z" fill="#4cc9f0" opacity="0.6" />
  
  <!-- Speech Bubble with "Creative" -->
  <path d="M370 80C370 71.7157 376.716 65 385 65H455C463.284 65 470 71.7157 470 80V120C470 128.284 463.284 135 455 135H435L420 150L405 135H385C376.716 135 370 128.284 370 120V80Z" fill="white" stroke="#16213e" stroke-width="2" />
  <text x="420" y="110" font-family="Arial" font-size="16" fill="#16213e" text-anchor="middle">CREATIVE</text>
</svg> 